<?xml version="1.0" standalone="no"?>
<!DOCTYPE svg PUBLIC "-//W3C//DTD SVG 20010904//EN"
 "http://www.w3.org/TR/2001/REC-SVG-20010904/DTD/svg10.dtd">
<svg version="1.0" xmlns="http://www.w3.org/2000/svg"
 width="400.000000pt" height="400.000000pt" viewBox="0 0 400.000000 400.000000"
 preserveAspectRatio="xMidYMid meet">
<metadata>
</metadata>
<g transform="translate(0.000000,400.000000) scale(0.100000,-0.100000)"
fill="#000000" stroke="none">
<path d="M1372 3080 c-54 -25 -129 -102 -154 -160 -16 -37 -19 -60 -15 -122 3
-43 1 -81 -4 -84 -23 -14 -2 -143 28 -177 27 -30 53 -105 53 -150 0 -32 4 -38
33 -50 17 -8 58 -33 89 -57 l58 -43 -34 -46 -34 -46 28 -36 29 -35 -27 -150
-28 -149 -29 0 c-27 0 -30 3 -47 70 -9 39 -23 104 -29 145 -7 41 -24 127 -38
192 l-26 116 -92 -56 c-51 -32 -100 -64 -110 -72 -10 -9 -34 -25 -53 -37 -55
-34 -130 -133 -190 -250 -44 -86 -60 -109 -78 -111 -22 -3 -23 -5 -7 -22 16
-18 15 -23 -20 -92 -20 -40 -41 -77 -46 -83 -5 -5 -9 -16 -9 -25 0 -8 -14 -42
-30 -75 -16 -33 -30 -73 -30 -88 0 -35 37 -104 113 -212 69 -99 119 -174 143
-217 l27 -48 549 0 548 0 0 43 c0 24 3 85 6 135 l7 92 683 0 683 0 -27 48
c-14 26 -29 49 -33 52 -4 3 -36 48 -71 101 l-64 96 70 103 c39 56 75 110 81
119 5 9 17 28 27 43 l19 28 -41 0 c-22 0 -40 3 -40 8 0 4 18 27 40 51 45 49
45 63 1 106 l-28 29 23 52 c12 28 26 68 29 88 7 35 8 36 55 36 77 0 80 3 80
81 0 79 -9 89 -83 89 l-43 0 -18 58 c-10 31 -25 68 -33 81 -14 22 -13 25 22
61 28 29 35 43 30 59 -7 23 -85 91 -105 91 -7 0 -28 -14 -47 -31 -19 -16 -38
-29 -41 -27 -4 2 -42 17 -84 33 l-78 30 0 52 c0 63 -13 73 -94 73 -65 0 -76
-12 -76 -84 0 -38 -3 -46 -22 -51 -13 -4 -52 -18 -87 -32 l-63 -25 -32 31
c-18 17 -38 31 -45 31 -22 0 -111 -81 -111 -101 0 -10 16 -34 36 -52 l37 -34
-25 -44 c-14 -24 -31 -61 -38 -81 -11 -36 -14 -38 -55 -38 -57 0 -67 -14 -63
-97 l3 -68 52 -3 c46 -3 52 -6 58 -30 3 -15 20 -53 36 -86 l31 -58 -36 -30
c-20 -16 -36 -38 -36 -49 0 -11 20 -39 45 -63 25 -25 45 -47 45 -50 0 -4 -62
-5 -137 -4 l-138 3 -10 31 c-6 17 -15 37 -21 45 -6 8 -29 48 -51 89 -37 69
-129 178 -172 204 -9 6 -53 34 -97 62 -152 99 -142 95 -148 76 -9 -29 -56
-234 -67 -292 -5 -30 -17 -92 -26 -137 l-16 -83 -33 0 c-29 0 -34 4 -34 23 0
12 -10 79 -22 150 l-22 127 23 41 23 40 -28 37 c-15 20 -31 39 -36 42 -8 6
105 93 146 111 20 9 26 19 26 43 0 35 39 136 58 151 15 12 42 107 42 148 0 15
-6 30 -12 32 -10 4 -12 34 -10 116 4 123 -4 147 -56 168 -16 7 -34 23 -40 35
-28 62 -197 88 -290 46z m1575 -898 l-124 -124 -49 50 c-27 27 -60 61 -73 75
l-23 26 36 37 36 37 28 -24 c15 -13 28 -27 30 -31 8 -17 24 -5 101 71 l81 79
40 -36 40 -37 -123 -123z m-947 -587 c0 -89 4 -155 9 -155 17 0 103 89 99 102
-3 7 -14 14 -26 16 -12 2 -22 8 -22 13 0 5 32 9 70 9 40 0 70 -4 70 -10 0 -5
-6 -10 -13 -10 -14 0 -117 -97 -117 -109 0 -4 15 -25 34 -47 18 -21 41 -54 50
-72 9 -18 28 -38 41 -44 45 -20 29 -34 -37 -32 -76 2 -73 1 -60 17 8 10 1 29
-30 75 -53 81 -68 81 -68 1 0 -52 3 -62 20 -66 11 -3 20 -11 20 -17 0 -8 -25
-12 -75 -12 -52 0 -75 4 -75 13 0 6 10 13 23 15 22 3 22 5 25 193 1 105 0 200
-3 211 -2 12 -14 24 -25 27 -36 9 -21 26 28 30 26 2 50 4 55 5 4 1 7 -68 7
-153z m-922 86 c2 -6 -8 -11 -22 -11 -32 0 -32 -6 0 -83 15 -34 33 -83 40
-109 8 -26 22 -65 32 -87 l18 -40 22 45 c12 24 22 50 22 57 0 7 16 53 36 101
19 49 33 95 30 102 -3 8 -17 14 -31 14 -14 0 -25 6 -25 13 0 12 45 14 129 7 2
0 -8 -11 -23 -25 -14 -13 -26 -29 -26 -36 0 -6 -6 -25 -14 -42 -27 -60 -63
-152 -76 -192 -21 -66 -58 -145 -68 -145 -5 0 -14 12 -19 28 -5 15 -17 47 -25
72 -9 25 -31 83 -50 130 -20 47 -43 107 -53 134 -11 29 -25 50 -36 53 -18 5
-24 15 -15 24 10 9 151 0 154 -10z m1902 -57 l0 -44 45 0 c25 0 45 -4 45 -10
0 -5 -20 -10 -45 -10 l-45 0 0 -134 c0 -84 4 -137 11 -141 20 -13 57 5 63 30
7 27 26 34 26 9 0 -29 -21 -56 -55 -70 -38 -15 -59 -11 -92 19 -22 19 -23 28
-23 154 l0 133 -30 0 c-16 0 -30 5 -30 10 0 6 14 10 30 10 29 0 30 2 30 44 0
41 2 45 28 48 39 5 42 2 42 -48z m-1437 -65 c15 -11 32 -39 38 -62 11 -41 7
-154 -7 -190 -10 -27 -83 -60 -131 -59 -79 1 -143 77 -143 169 0 39 23 95 52
128 29 33 33 35 98 35 53 0 73 -4 93 -21z m207 -1 l0 -22 16 22 c12 17 25 22
60 22 37 0 46 -4 55 -24 22 -47 -29 -89 -61 -51 -10 12 -10 21 -2 40 10 22 10
23 -11 16 -41 -15 -58 -71 -55 -179 l3 -97 28 -3 c16 -2 26 -9 24 -15 -2 -8
-33 -12 -86 -12 -80 0 -115 11 -72 22 27 7 34 49 29 170 -3 75 -8 98 -21 108
-28 20 -20 25 38 25 50 0 55 -2 55 -22z m592 -125 l3 -148 36 -3 c30 -3 39 2
55 25 27 40 28 228 2 247 -29 21 -21 27 35 24 l52 -3 3 -147 c2 -140 4 -148
22 -148 11 0 20 -7 20 -15 0 -12 -13 -15 -55 -15 -52 0 -55 1 -55 25 l0 25
-26 -23 c-36 -31 -71 -39 -111 -22 -45 19 -53 46 -53 176 0 98 -2 110 -20 121
-33 21 -23 28 35 28 l54 0 3 -147z m368 130 c0 -15 1 -15 18 0 11 10 36 17 61
17 34 0 43 -4 52 -24 23 -49 -36 -93 -61 -46 -7 14 -8 26 -1 39 9 16 8 18 -9
14 -46 -12 -55 -38 -55 -162 l0 -116 28 -3 c16 -2 26 -9 24 -15 -2 -8 -33 -12
-86 -12 -80 0 -115 11 -72 22 29 7 33 33 29 158 -2 87 -6 109 -20 119 -29 21
-21 26 37 26 45 0 55 -3 55 -17z"/>

</g>
</svg>
